<svg width="180" height="16" viewBox="0 0 180 16" fill="none" xmlns="http://www.w3.org/2000/svg">
<path fill-rule="evenodd" clip-rule="evenodd" d="M0 4.03674L3.81849 0.218251L15.274 11.6737L11.4555 15.4922L0 4.03674Z" fill="#000A02"/>
<path fill-rule="evenodd" clip-rule="evenodd" d="M7.63672 11.6738L19.0922 0.21835L22.9107 4.03684L11.4552 15.4923L7.63672 11.6738Z" fill="#000A02"/>
<path fill-rule="evenodd" clip-rule="evenodd" d="M15.2729 4.03723L19.0914 0.218739L30.5469 11.6742L26.7284 15.4927L15.2729 4.03723Z" fill="#000A02"/>
<path fill-rule="evenodd" clip-rule="evenodd" d="M22.9136 11.6748L34.3691 0.219326L38.1875 4.03782L26.7321 15.4933L22.9136 11.6748Z" fill="#000A02"/>
<g style="mix-blend-mode:hard-light">
<path fill-rule="evenodd" clip-rule="evenodd" d="M22.9136 4.03772L26.7321 0.219228L38.1875 11.6747L34.3691 15.4932L22.9136 4.03772Z" fill="#00C000"/>
</g>
<g style="mix-blend-mode:hard-light">
<path fill-rule="evenodd" clip-rule="evenodd" d="M0 11.6738L11.4555 0.218351L15.274 4.03684L3.81849 15.4923L0 11.6738Z" fill="#00C000"/>
</g>
<g style="mix-blend-mode:hard-light">
<rect x="7.63672" y="4.03723" width="5.40016" height="16.2005" transform="rotate(-45 7.63672 4.03723)" fill="#00C000"/>
</g>
<g style="mix-blend-mode:hard-light">
<path fill-rule="evenodd" clip-rule="evenodd" d="M15.2729 11.6743L26.7284 0.218837L30.5469 4.03733L19.0914 15.4928L15.2729 11.6743Z" fill="#00C000"/>
</g>
<path fill-rule="evenodd" clip-rule="evenodd" d="M52.3016 10.1262L52.6507 12.679H52.6944L53.0871 10.0826L56.469 0.220459H57.56L60.9637 10.1262L61.3564 12.679H61.4001L61.8092 10.0826L64.4765 0.220459H66.6584L62.011 15.7118H60.7673L57.429 5.78426L56.9709 3.49329H56.8618L56.4254 5.8279L53.0871 15.7118H51.8216L47.0869 0.220459H49.3997L52.3016 10.1262Z" fill="black"/>
<path fill-rule="evenodd" clip-rule="evenodd" d="M68.9058 1.31116C68.9036 0.971929 69.0372 0.64591 69.2767 0.405682C69.5521 0.127645 69.9333 -0.0192706 70.324 0.00203295C70.7133 -0.0106032 71.0912 0.135022 71.3713 0.405682C71.6301 0.636188 71.7805 0.964619 71.7859 1.31116C71.7827 1.65196 71.6313 1.9745 71.3713 2.19483C71.0848 2.4529 70.7094 2.58977 70.324 2.57666C69.9447 2.59293 69.5749 2.45523 69.2985 2.19483C69.0495 1.96839 68.907 1.64776 68.9058 1.31116V1.31116Z" fill="black"/>
<path fill-rule="evenodd" clip-rule="evenodd" d="M69.3208 4.0387H71.3281V15.4936H69.3208V4.0387H69.3208Z" fill="black"/>
<path fill-rule="evenodd" clip-rule="evenodd" d="M78.9214 10.3444H77.6777V15.4937H75.6704V0.220459H77.6777V9.25346L78.8123 8.88254L82.6306 4.03876H84.9871L81.3433 8.46798V8.46798L80.1433 9.34074L81.5179 10.3226L85.5543 15.4937H83.0234L78.9214 10.3444Z" fill="black"/>
<path fill-rule="evenodd" clip-rule="evenodd" d="M87.9756 1.31116C87.9792 0.968751 88.1208 0.642275 88.3683 0.405679C88.6385 0.133421 89.0105 -0.0130094 89.3938 0.0020309C89.7831 -0.0106052 90.161 0.13502 90.4411 0.405679C90.6999 0.636186 90.8503 0.964617 90.8557 1.31116C90.8525 1.65196 90.7011 1.9745 90.4411 2.19482C90.1546 2.45289 89.7792 2.58977 89.3938 2.57665C89.0145 2.59293 88.6446 2.45523 88.3683 2.19482C88.1193 1.96839 87.9768 1.64776 87.9756 1.31116H87.9756Z" fill="black"/>
<path fill-rule="evenodd" clip-rule="evenodd" d="M88.3672 4.0387H90.3745V15.4936H88.3672V4.0387V4.0387Z" fill="black"/>
<path fill-rule="evenodd" clip-rule="evenodd" d="M102.157 15.4936V9.20974C102.162 8.66299 102.133 8.11647 102.07 7.57333C102.029 7.16552 101.911 6.7693 101.721 6.40602C101.557 6.10199 101.301 5.85759 100.99 5.70782C100.609 5.5417 100.195 5.46341 99.7792 5.47872C99.0793 5.45507 98.3941 5.68347 97.8483 6.12238C97.3358 6.55244 96.9572 7.12031 96.7573 7.75879V15.4936H94.75V4.03868H96.1246L96.5173 5.566H96.7355C97.1979 5.04502 97.739 4.59962 98.3392 4.24596C99.0436 3.86085 99.8387 3.67243 100.641 3.70049C101.334 3.6763 102.019 3.8504 102.616 4.20232C103.199 4.60782 103.626 5.20062 103.827 5.88237C104.24 5.2311 104.801 4.68565 105.463 4.2896C106.145 3.89376 106.922 3.69017 107.71 3.70049C108.312 3.68702 108.912 3.768 109.489 3.94049C109.96 4.08961 110.375 4.37882 110.678 4.76961C111.019 5.24364 111.25 5.78778 111.354 6.36239C111.515 7.19617 111.588 8.04442 111.572 8.89337V15.4936H109.565V8.90428C109.57 8.40069 109.538 7.89741 109.467 7.39878C109.418 7.02565 109.296 6.66593 109.107 6.34057C108.934 6.05925 108.679 5.83822 108.376 5.70782C107.983 5.55554 107.564 5.485 107.143 5.50054C106.429 5.46083 105.727 5.69493 105.179 6.15511C104.646 6.69013 104.288 7.37517 104.154 8.1188V15.4936H102.147H102.157Z" fill="black"/>
<path fill-rule="evenodd" clip-rule="evenodd" d="M122.843 15.4605C123.524 15.2715 124.167 14.9651 124.742 14.555L123.978 13.0277C123.603 13.3608 123.165 13.6166 122.691 13.7805C122.133 13.9922 121.542 14.0995 120.945 14.0968C119.476 14.0968 118.436 13.755 117.825 13.0713C117.154 12.2033 116.817 11.1232 116.876 10.0276H125.058C125.102 9.73107 125.131 9.4325 125.145 9.13304V8.32574C125.177 7.52575 125.031 6.72868 124.72 5.99113C124.475 5.44107 124.101 4.9583 123.629 4.58381C123.176 4.2456 122.655 4.01097 122.102 3.89652C121.543 3.77381 120.972 3.71163 120.4 3.71106C118.611 3.71106 117.232 4.23108 116.265 5.27111C115.298 6.31114 114.814 7.813 114.814 9.7767C114.804 10.6172 114.914 11.4548 115.141 12.264C115.336 12.9615 115.678 13.6089 116.145 14.1623C116.617 14.7004 117.212 15.116 117.88 15.3732C118.678 15.673 119.526 15.8174 120.378 15.7987C121.212 15.8061 122.042 15.6922 122.843 15.4605ZM122.528 6.13272C123.029 6.61274 123.266 7.43458 123.237 8.59825H116.953C117.055 7.43458 117.404 6.61274 118 6.13272C118.7 5.62 119.556 5.36556 120.422 5.4127C121.191 5.3658 121.948 5.62457 122.528 6.13272Z" fill="black"/>
<path fill-rule="evenodd" clip-rule="evenodd" d="M138.323 13.6281C138.301 12.9663 138.29 12.2717 138.29 11.5444V0.220459H136.283V4.21331L135.661 4.03876C135.462 3.97263 135.257 3.92158 135.05 3.88602L134.374 3.80966C134.134 3.78784 133.861 3.77693 133.556 3.77693C131.752 3.77693 130.352 4.29695 129.355 5.33698C128.359 6.37701 127.861 7.8716 127.861 9.82075C127.861 11.8426 128.264 13.3409 129.072 14.3154C129.879 15.29 131.105 15.7773 132.748 15.7773C133.536 15.8015 134.316 15.6131 135.007 15.2318C135.616 14.8908 136.125 14.3938 136.479 13.7918H136.697L137.199 15.5373H138.53C138.413 14.907 138.344 14.2688 138.323 13.6281ZM135.193 5.64239C135.587 5.73873 135.958 5.91307 136.284 6.15514H136.305V11.4571C136.167 12.2084 135.799 12.8982 135.253 13.4317C134.664 13.9068 133.919 14.1442 133.163 14.0972C132.64 14.1146 132.12 14.0061 131.647 13.7808C131.246 13.5774 130.906 13.2728 130.66 12.8972C130.399 12.4861 130.214 12.0316 130.114 11.5553C129.993 10.9999 129.935 10.4327 129.94 9.86434C129.94 8.32247 130.265 7.20971 130.916 6.52606C131.642 5.81807 132.631 5.44619 133.643 5.50057C134.164 5.48816 134.683 5.53575 135.193 5.64239Z" fill="black"/>
<path fill-rule="evenodd" clip-rule="evenodd" d="M142.37 1.31135C142.374 0.968944 142.515 0.642468 142.763 0.405872C143.028 0.139252 143.391 -0.00670669 143.767 0.00222365C144.156 -0.0104125 144.534 0.135213 144.814 0.405872C145.073 0.636379 145.223 0.96481 145.229 1.31135C145.225 1.65215 145.074 1.97469 144.814 2.19502C144.527 2.45309 144.152 2.58996 143.767 2.57685C143.387 2.59312 143.017 2.45542 142.741 2.19502C142.5 1.96476 142.366 1.64464 142.37 1.31135V1.31135Z" fill="black"/>
<path fill-rule="evenodd" clip-rule="evenodd" d="M142.785 4.0387H144.792V15.4936H142.785V4.0387V4.0387Z" fill="black"/>
<path fill-rule="evenodd" clip-rule="evenodd" d="M151.097 4.0387V10.3443C151.091 10.8918 151.128 11.4389 151.207 11.9808C151.26 12.3917 151.394 12.7882 151.599 13.1481C151.791 13.4559 152.068 13.702 152.396 13.8572C152.788 14.0391 153.218 14.1251 153.65 14.1081C154.431 14.1409 155.196 13.8758 155.788 13.3663C156.348 12.8625 156.781 12.2348 157.054 11.5335V4.0387H159.061V12.2208C159.061 12.7735 159.083 13.3372 159.127 13.9117C159.164 14.4349 159.229 14.9557 159.323 15.4718H157.97L157.425 13.5735H157.207C156.827 14.2292 156.286 14.7774 155.636 15.1663C154.872 15.5977 154.003 15.8092 153.127 15.7772C152.532 15.7877 151.94 15.7068 151.37 15.5372C150.881 15.3859 150.443 15.1028 150.105 14.719C149.732 14.2739 149.47 13.7467 149.341 13.1808C149.157 12.3944 149.073 11.5881 149.09 10.7807V4.0387H151.097V4.0387Z" fill="black"/>
<path fill-rule="evenodd" clip-rule="evenodd" d="M170.583 15.4936V9.20974C170.588 8.66299 170.559 8.11647 170.496 7.57333C170.455 7.16552 170.337 6.7693 170.147 6.40602C169.983 6.10199 169.727 5.85759 169.416 5.70782C169.035 5.5417 168.621 5.46341 168.205 5.47872C167.505 5.45507 166.82 5.68347 166.274 6.12238C165.762 6.55244 165.383 7.12031 165.183 7.75879V15.4936H163.176V4.03868H164.55L164.943 5.566H165.161C165.624 5.04502 166.165 4.59962 166.765 4.24596C167.469 3.86085 168.265 3.67243 169.067 3.70049C169.759 3.6763 170.444 3.8504 171.041 4.20232C171.625 4.60782 172.052 5.20062 172.252 5.88237C172.666 5.2311 173.227 4.68565 173.889 4.2896C174.571 3.89376 175.348 3.69017 176.136 3.70049C176.738 3.68702 177.338 3.768 177.914 3.94049C178.386 4.08961 178.801 4.37882 179.104 4.76961C179.445 5.24364 179.676 5.78778 179.78 6.36239C179.94 7.19617 180.014 8.04442 179.998 8.89337V15.4936H177.991V8.90428C177.996 8.40069 177.963 7.89741 177.893 7.39878C177.844 7.02565 177.722 6.66593 177.533 6.34057C177.36 6.05925 177.105 5.83822 176.802 5.70782C176.409 5.55554 175.99 5.485 175.569 5.50054C174.855 5.46083 174.153 5.69493 173.605 6.15511C173.072 6.69013 172.714 7.37517 172.58 8.1188V15.4936H170.572H170.583Z" fill="black"/>
</svg>
